<svg xmlns="http://www.w3.org/2000/svg" viewBox="0 0 1697.05593 1093.88771"><path d="M1187.8799,777.0967a123.24379,123.24379,0,0,0,18.7529,1.4443c59.4443,0,111.1231-44.3896,120.1992-103.2519a121.79886,121.79886,0,0,0-101.8066-138.9522,123.24379,123.24379,0,0,0-18.7529-1.4443c-59.4444,0-111.1182,44.3867-120.1954,103.25A121.94679,121.94679,0,0,0,1187.8799,777.0967Z" transform="translate(-212.0904 -534.8926)" fill="#2e2e2d"/><path d="M1089.0742,1464.76172c-30.2607-7.581-60.7597-14.8506-91.15233-20.9844-265.06149-53.5058-442.752-28.3652-549.15628,5.1983a729.41419,729.41419,0,0,0,95.1065,15.7861Z" transform="translate(-212.0904 -534.8926)" fill="#2e2e2d"/><path d="M367.17379,1421.95512c102.0381-45.666,306.07621-98.7188,641.418-31.0254,53.2344,10.748,106.1826,24.5508,157.3789,37.8994q11.5752,3.01905,23.0742,6.0078c19.8584,5.1543,39.5899,10.2022,59.2246,14.9912,22.0518,5.3838,43.9854,10.4365,65.876,14.9336H1577.502c43.6289-4.4873,82.9179-11.9033,118.1044-22.0078,68.5791-29.5146,136.6329-72.7305,174.8887-114.0801,3.6729-5.5107,7.1475-11.1523,10.3086-16.9843,35.4307-65.2618,30.6846-137.3243,22.5635-181.05179-103.4834,80.94527-247.4834,90.59179-292.9785,91.51269l-241.9297.0049,28.458-53.9102,13.8223-26.1826,14.9628-2.1826a59.81171,59.81171,0,0,0,37.5538-97.29982l28.9404-54.8164a59.8601,59.8601,0,0,0,31.2588-59.2246l31.9023-60.4239a29.95286,29.95286,0,0,0-52.9785-27.9638l-19.9756,37.8466a59.607,59.607,0,0,0-28.3262-2.1152l-186.1923,31.1914L1242.959,822.582a172.00934,172.00934,0,0,1-32.292,3.791c-1.3447.0313-2.6797.0899-4.0342.0899a171.24407,171.24407,0,0,1-26.0605-2.0068,168.65279,168.65279,0,0,1-78.4854-33.9834,170.44311,170.44311,0,0,1-26.168-25.4571,119.27,119.27,0,0,0-55.497,57.3916l-143.333,313.93562-9.96588,21.9931c-1.48342,3.2686-2.73242,6.587-3.90032,9.91408H1125.9805l57.1201-125.1758,22.6943,76.9326a59.86548,59.86548,0,0,0,66.1094,42.32432l65.4424-9.5547-8.166,15.4687-28.458,53.9102H513.68749c-46.1562-.6719-191.31349-9.6465-295.7344-91.52249-5.3105,28.375-9.2182,68.68169-1.625,111.23049C231.07809,1323.80662,281.67289,1383.99122,367.17379,1421.95512ZM1306.0039,1036.2773l-3.9658-13.4492,113.9873-19.0937-9.4316,17.8633Z" transform="translate(-212.0904 -534.8926)" fill="#2e2e2d"/><path d="M326.42579,1617.96391a26.95176,26.95176,0,0,0,38.0215,2.7578c1.2812-1.1055,131.4082-109.583,458.24219-43.6153,23.8759,4.8194,48.0488,10.1641,71.4277,15.3282,81.2666,17.9492,164.54492,36.3457,251.05862,36.3457a542.10683,542.10683,0,0,0,98.7334-8.7451c59.6347-11.001,125.3789-43.8106,173.373-85.1104-25.9092-2.4414-51.6142-6.0127-77.1152-10.46089-33.5586,20.55069-71.4541,36.17569-106.0361,42.55269-111.7998,20.6191-217-2.6162-328.38482-27.22461-23.6113-5.21879-48.0313-10.61719-72.3887-15.53218-10.06638-2.0323-19.9101-3.8643-29.6367-5.5889-131.34468-23.2783-232.18749-19.2305-306.48629-5.5586-112.9483,20.78419-164.5235,63.78029-168.0508,66.83009A26.95756,26.95756,0,0,0,326.42579,1617.96391Z" transform="translate(-212.0904 -534.8926)" fill="#2e2e2d"/></svg>